<svg width="103" height="42" viewBox="0 0 103 42" fill="none" xmlns="http://www.w3.org/2000/svg">
<path d="M3.07291 7.88171C3.07291 9.457 3.54333 10.7187 4.48416 11.6667C5.42499 12.6076 6.61188 13.078 8.04484 13.078C9.46332 13.078 10.6176 12.6717 11.5078 11.8591C12.4052 11.0394 12.9878 9.94171 13.2556 8.566L15.9804 9.6352C15.5534 11.5027 14.6524 12.9925 13.2773 14.1045C11.9095 15.2093 10.1581 15.7617 8.02313 15.7617C6.829 15.7617 5.72895 15.5622 4.72298 15.163C3.71702 14.7638 2.87027 14.215 2.18274 13.5164C1.49521 12.8179 0.95966 11.9839 0.57609 11.0145C0.192521 10.0451 0.000735982 9.00081 0.000735982 7.88171C-0.0137383 6.79825 0.185284 5.76825 0.597802 4.79171C1.01032 3.80804 1.5712 2.96337 2.28044 2.2577C2.99692 1.55202 3.85452 0.996037 4.85325 0.589739C5.85922 0.176314 6.91584 -0.0197069 8.02313 0.00167718C9.01462 0.00167718 9.9265 0.13711 10.7588 0.407975C11.591 0.671712 12.3003 1.0388 12.8865 1.50925C13.4799 1.9797 13.9721 2.52143 14.3629 3.13444C14.7609 3.74033 15.0504 4.40323 15.2313 5.12316L12.474 6.33136C12.2496 5.20514 11.743 4.31413 10.9542 3.65835C10.1653 3.00258 9.18107 2.67469 8.00142 2.67469C6.59017 2.67469 5.41413 3.15583 4.4733 4.11811C3.53971 5.07327 3.07291 6.3278 3.07291 7.88171Z" fill="white"/>
<path d="M25.7506 0.00167718C26.8434 -0.0197069 27.8964 0.179878 28.9096 0.600431C29.9228 1.02098 30.7949 1.58766 31.5258 2.30047C32.264 3.01327 32.8502 3.8615 33.2844 4.84517C33.7187 5.82171 33.9249 6.83389 33.9032 7.88171C33.9249 8.93666 33.7187 9.95597 33.2844 10.9396C32.8502 11.9162 32.264 12.7608 31.5258 13.4736C30.7949 14.1864 29.9228 14.7531 28.9096 15.1737C27.8964 15.5871 26.8434 15.7831 25.7506 15.7617C24.6577 15.7903 23.6011 15.5942 22.5807 15.1737C21.5602 14.7531 20.6809 14.1864 19.9427 13.4736C19.2045 12.7537 18.6183 11.9055 18.1841 10.9289C17.7499 9.94527 17.5436 8.92953 17.5653 7.88171C17.5436 6.83389 17.7499 5.82171 18.1841 4.84517C18.6183 3.86863 19.2045 3.02396 19.9427 2.31116C20.6809 1.59123 21.5602 1.02098 22.5807 0.600431C23.6011 0.179878 24.6577 -0.0197069 25.7506 0.00167718ZM23.1886 12.3403C23.963 12.7537 24.817 12.9604 25.7506 12.9604C26.6841 12.9604 27.5381 12.7537 28.3125 12.3403C29.0869 11.9269 29.7057 11.3317 30.1688 10.5547C30.632 9.77064 30.8636 8.87963 30.8636 7.88171C30.8636 6.3777 30.3751 5.15168 29.3981 4.20365C28.4211 3.25562 27.2052 2.78161 25.7506 2.78161C24.2959 2.78161 23.08 3.25562 22.103 4.20365C21.126 5.15168 20.6375 6.3777 20.6375 7.88171C20.6375 8.87963 20.8691 9.77064 21.3323 10.5547C21.7954 11.3317 22.4142 11.9269 23.1886 12.3403Z" fill="white"/>
<path d="M41.9147 2.63192C41.1838 2.63192 40.594 2.78517 40.1453 3.09168C39.6966 3.39818 39.4722 3.79022 39.4722 4.2678C39.4722 4.8523 39.7798 5.32275 40.3949 5.67915C41.0101 6.03555 41.9111 6.32424 43.098 6.5452C45.0303 6.90161 46.4271 7.43264 47.2883 8.13832C48.1568 8.83686 48.591 9.83122 48.591 11.1214C48.591 12.4757 48.0229 13.5877 46.8867 14.4573C45.7504 15.3269 44.2487 15.7617 42.3815 15.7617C40.84 15.7617 39.4179 15.4125 38.1152 14.7139C36.7981 13.9869 35.8428 12.7822 35.2493 11.1L37.9198 9.46413C38.2238 10.6403 38.7666 11.5384 39.5482 12.1585C40.337 12.7715 41.3068 13.078 42.4575 13.078C43.3911 13.078 44.1366 12.9105 44.6938 12.5755C45.2583 12.2405 45.5406 11.795 45.5406 11.239C45.5406 10.6616 45.2764 10.2054 44.7481 9.87043C44.2198 9.52828 43.3007 9.25385 41.9907 9.04714C38.3143 8.49828 36.476 6.89804 36.476 4.24642C36.476 3.05604 37.0007 2.05098 38.0501 1.23126C39.0995 0.411539 40.4492 0.00167718 42.0993 0.00167718C43.4961 0.00167718 44.7083 0.329566 45.736 0.985345C46.7636 1.64112 47.491 2.56777 47.918 3.76527L45.3234 5.25147C44.8386 3.5051 43.7023 2.63192 41.9147 2.63192Z" fill="white"/>
<path d="M50.7947 15.5479V0.215518H53.8018V15.5479H50.7947Z" fill="white"/>
<path d="M63.9519 15.7617C62.5262 15.7831 61.2162 15.4588 60.0221 14.7888C58.8352 14.1116 57.898 13.1671 57.2105 11.9554C56.5229 10.7365 56.19 9.37859 56.2118 7.88171C56.1828 6.44185 56.5266 5.11247 57.243 3.89358C57.9595 2.66756 58.9365 1.70528 60.1741 1.00673C61.4117 0.308182 62.7578 -0.0268349 64.2124 0.00167718C66.2244 0.00167718 67.8744 0.479255 69.1627 1.43441C70.4581 2.38957 71.3193 3.69399 71.7463 5.3477L68.8153 6.26721C68.5837 5.14098 68.0662 4.27136 67.2629 3.65835C66.4596 3.04534 65.4572 2.73884 64.2559 2.73884C62.8518 2.73884 61.6722 3.22354 60.7169 4.19296C59.7616 5.15524 59.2839 6.38482 59.2839 7.88171C59.2839 9.40711 59.7399 10.6474 60.6518 11.6025C61.5709 12.5506 62.7578 13.0246 64.2124 13.0246C64.8059 13.0246 65.3523 12.9284 65.8516 12.7359C66.351 12.5434 66.7599 12.294 67.0783 11.9875C67.404 11.6809 67.6682 11.3602 67.8708 11.0252C68.0735 10.683 68.211 10.3444 68.2833 10.0094H61.987V7.44334H72.0828V15.5479H69.4883V12.3724C69.0034 13.4558 68.2942 14.2934 67.3606 14.885C66.427 15.4695 65.2908 15.7617 63.9519 15.7617Z" fill="white"/>
<path d="M77.793 2.2577V15.5479H74.7859V0.215518H79.9641L86.4341 13.5164V0.215518H89.4412V15.5479H84.263L77.793 2.2577Z" fill="white"/>
<path d="M91.7752 16.0932H103V18.4989H91.7752V16.0932Z" fill="white"/>
<path d="M0.619513 22.1128H3.62655V34.708H12.6694V37.4452H0.619513V22.1128Z" fill="white"/>
<path d="M14.2869 32.2596C14.2869 30.6985 14.8043 29.4083 15.8393 28.389C16.8814 27.3626 18.2022 26.8494 19.8016 26.8494C21.401 26.8494 22.7182 27.3626 23.7531 28.389C24.788 29.4083 25.3055 30.6985 25.3055 32.2596C25.3055 33.8063 24.7844 35.0929 23.7422 36.1194C22.7001 37.1458 21.3865 37.659 19.8016 37.659C18.2167 37.659 16.8995 37.1458 15.8501 36.1194C14.808 35.0929 14.2869 33.8063 14.2869 32.2596ZM22.5264 32.2596C22.5264 31.3971 22.2695 30.6985 21.7556 30.1639C21.249 29.6293 20.5977 29.362 19.8016 29.362C19.0055 29.362 18.3506 29.6329 17.8367 30.1746C17.3229 30.7092 17.066 31.4042 17.066 32.2596C17.066 33.1149 17.3229 33.8099 17.8367 34.3445C18.3506 34.8791 19.0055 35.1464 19.8016 35.1464C20.5977 35.1464 21.249 34.8791 21.7556 34.3445C22.2695 33.8099 22.5264 33.1149 22.5264 32.2596Z" fill="white"/>
<path d="M27.3898 38.8672L29.8974 37.7766C30.0639 38.3825 30.3679 38.8459 30.8093 39.1666C31.2508 39.4945 31.8008 39.6584 32.4594 39.6584C33.2989 39.6584 33.9322 39.4018 34.3592 38.8886C34.7934 38.3754 35.0105 37.6519 35.0105 36.7181V35.7345C34.3664 36.8322 33.241 37.381 31.6344 37.381C30.2593 37.381 29.1158 36.8999 28.2039 35.9376C27.2921 34.9753 26.8361 33.7422 26.8361 32.2382C26.8361 31.4398 26.9664 30.7021 27.2269 30.0249C27.4947 29.3406 27.8529 28.7704 28.3016 28.3142C28.7576 27.8509 29.2895 27.4909 29.8974 27.2343C30.5054 26.9777 31.1495 26.8494 31.8298 26.8494C33.2627 26.8494 34.323 27.3305 35.0105 28.2928V27.0632H37.833V36.5043C37.833 38.2079 37.3626 39.548 36.4217 40.5245C35.4881 41.5082 34.1457 42 32.3943 42C29.7961 42 28.128 40.9557 27.3898 38.8672ZM35.0973 32.1633C35.0973 31.2937 34.8404 30.5916 34.3266 30.057C33.82 29.5224 33.1686 29.2551 32.3726 29.2551C31.5909 29.2551 30.9468 29.526 30.4402 30.0677C29.9336 30.6094 29.6803 31.3329 29.6803 32.2382C29.6803 33.0935 29.9336 33.7743 30.4402 34.2803C30.9541 34.7864 31.6126 35.0395 32.416 35.0395C33.1831 35.0395 33.82 34.7686 34.3266 34.2269C34.8404 33.6852 35.0973 32.9973 35.0973 32.1633Z" fill="white"/>
<path d="M39.9499 32.2596C39.9499 30.6985 40.4673 29.4083 41.5022 28.389C42.5444 27.3626 43.8652 26.8494 45.4646 26.8494C47.064 26.8494 48.3811 27.3626 49.4161 28.389C50.451 29.4083 50.9684 30.6985 50.9684 32.2596C50.9684 33.8063 50.4474 35.0929 49.4052 36.1194C48.3631 37.1458 47.0495 37.659 45.4646 37.659C43.8796 37.659 42.5625 37.1458 41.5131 36.1194C40.4709 35.0929 39.9499 33.8063 39.9499 32.2596ZM48.1894 32.2596C48.1894 31.3971 47.9324 30.6985 47.4186 30.1639C46.912 29.6293 46.2607 29.362 45.4646 29.362C44.6685 29.362 44.0135 29.6329 43.4997 30.1746C42.9858 30.7092 42.7289 31.4042 42.7289 32.2596C42.7289 33.1149 42.9858 33.8099 43.4997 34.3445C44.0135 34.8791 44.6685 35.1464 45.4646 35.1464C46.2607 35.1464 46.912 34.8791 47.4186 34.3445C47.9324 33.8099 48.1894 33.1149 48.1894 32.2596Z" fill="white"/>
</svg>
