<svg width="28" height="46" viewBox="0 0 28 46" fill="none" xmlns="http://www.w3.org/2000/svg">
<path d="M4.5769 11.8837V34.117C4.5769 36.2639 4.5769 37.3368 4.98773 38.1568C5.34909 38.8781 5.9253 39.4651 6.63452 39.8326C7.44002 40.25 8.49501 40.25 10.6018 40.25H17.3981C19.505 40.25 20.5584 40.25 21.3639 39.8326C22.0731 39.4651 22.6513 38.8781 23.0126 38.1568C23.4231 37.3376 23.4231 36.2662 23.4231 34.1235V11.8774C23.4231 9.73474 23.4231 8.6618 23.0126 7.84261C22.6513 7.12132 22.0731 6.53532 21.3639 6.16781C20.5576 5.75 19.5036 5.75 17.3927 5.75H10.608C8.49707 5.75 7.4408 5.75 6.63452 6.16781C5.9253 6.53532 5.34909 7.12132 4.98773 7.84261C4.5769 8.66261 4.5769 9.73684 4.5769 11.8837Z" stroke="#353535" stroke-width="3.5" stroke-linecap="round" stroke-linejoin="round"/>
<path d="M14 34.5H14.0034L14.0034 34.5035" stroke="#FF7170" stroke-width="3.5" stroke-linecap="round" stroke-linejoin="round"/>
</svg>
