<svg width="93" height="70" viewBox="0 0 93 70" fill="none" xmlns="http://www.w3.org/2000/svg">
<path d="M0 70V27.0562C0 9.01873 10.1752 0 30.5255 0H40.8061V16.8315H29.5765C21.1412 16.8315 16.9235 20.03 16.9235 26.427C16.9235 32.9288 20.6667 36.1798 28.1531 36.1798H34.0051V70H0ZM51.8776 70V27.0562C51.8776 9.01873 62 0 82.2449 0H93V16.8315H81.6122C73.2823 16.8315 69.1173 20.03 69.1173 26.427C69.1173 29.4682 70.0663 31.8801 71.9643 33.6629C73.9677 35.3408 76.6565 36.1798 80.0306 36.1798H85.8827V70H51.8776Z" fill="#CEDBFA"/>
</svg>
