<svg width="32" height="32" viewBox="0 0 32 32" fill="none" xmlns="http://www.w3.org/2000/svg">
<path d="M12.4509 21.3208C16.6594 21.087 20 17.6005 20 13.3335C20 8.91522 16.4183 5.3335 12 5.3335C7.58172 5.3335 4 8.91522 4 13.3335C4 14.9078 4.45458 16.3758 5.23985 17.6134L4.67448 19.3096L4.67358 19.312C4.45703 19.9617 4.34871 20.2866 4.42585 20.5029C4.49306 20.6914 4.64225 20.84 4.83073 20.9072C5.0463 20.9841 5.36899 20.8765 6.01425 20.6614L6.02344 20.6586L7.72005 20.0933C8.95774 20.8785 10.4258 21.3332 12.0001 21.3332C12.1514 21.3332 12.3017 21.329 12.4509 21.3208ZM12.4509 21.3208C12.451 21.3211 12.4507 21.3204 12.4509 21.3208ZM12.4509 21.3208C13.5454 24.4347 16.5121 26.667 20.0002 26.667C21.5745 26.667 23.0422 26.2119 24.2798 25.4266L25.976 25.992L25.9794 25.9926C26.6289 26.2091 26.9544 26.3177 27.1707 26.2405C27.3592 26.1733 27.5065 26.0247 27.5737 25.8362C27.6509 25.6197 27.5429 25.2943 27.3258 24.6429L26.7604 22.9468L26.9498 22.633C27.6184 21.4641 27.9993 20.1099 27.9993 18.6668C27.9993 14.2486 24.4183 10.6668 20 10.6668L19.7005 10.6723L19.5495 10.6797" stroke="white" stroke-width="2.66667" stroke-linecap="round" stroke-linejoin="round"/>
</svg>
