<svg width="176" height="75" viewBox="0 0 176 75" fill="none" xmlns="http://www.w3.org/2000/svg">
<path d="M165.845 73.8304C166.156 74.2871 166.778 74.4055 167.235 74.0949L174.677 69.0333C175.133 68.7227 175.252 68.1007 174.941 67.6441C174.63 67.1874 174.008 67.069 173.552 67.3796L166.937 71.8788L162.438 65.2638C162.127 64.8072 161.505 64.6888 161.048 64.9994C160.592 65.31 160.473 65.932 160.784 66.3886L165.845 73.8304ZM1.40341 15.2894C15.9885 6.35728 58.2071 -7.08463 109.425 11.4835L110.106 9.60321C58.2799 -9.18564 15.4284 4.35504 0.358891 13.5838L1.40341 15.2894ZM109.425 11.4835C160.637 30.0497 168.07 60.5808 165.69 73.081L167.655 73.455C170.272 59.7042 161.938 28.394 110.106 9.60321L109.425 11.4835Z" fill="white"/>
</svg>
