<svg width="28" height="46" viewBox="0 0 28 46" fill="none" xmlns="http://www.w3.org/2000/svg">
<path d="M4.57715 11.8837V34.117C4.57715 36.2639 4.57715 37.3368 4.98797 38.1568C5.34934 38.8781 5.92554 39.4651 6.63477 39.8326C7.44026 40.25 8.49525 40.25 10.6021 40.25H17.3984C19.5052 40.25 20.5587 40.25 21.3642 39.8326C22.0734 39.4651 22.6515 38.8781 23.0129 38.1568C23.4233 37.3376 23.4233 36.2662 23.4233 34.1235V11.8774C23.4233 9.73474 23.4233 8.6618 23.0129 7.84261C22.6515 7.12132 22.0734 6.53532 21.3642 6.16781C20.5579 5.75 19.5039 5.75 17.3929 5.75H10.6083C8.49732 5.75 7.44105 5.75 6.63477 6.16781C5.92554 6.53532 5.34934 7.12132 4.98797 7.84261C4.57715 8.66261 4.57715 9.73684 4.57715 11.8837Z" stroke="#353535" stroke-width="3.5" stroke-linecap="round" stroke-linejoin="round"/>
<path d="M14 34.5H14.0034L14.0034 34.5035" stroke="#353535" stroke-width="3.5" stroke-linecap="round" stroke-linejoin="round"/>
</svg>
